<svg width="21" height="16" viewBox="0 0 21 16" fill="none" xmlns="http://www.w3.org/2000/svg">
<path d="M14.7692 2.3077V3.01924M14.7692 5.86539V6.57693M14.7692 9.42308V10.1346M14.7692 12.9808V13.6923M6.23077 8.71155H11.2115M6.23077 10.8462H9.07692M2.31731 1.59616C1.72785 1.59616 1.25 2.07401 1.25 2.66347V5.53462C2.10072 6.02673 2.67308 6.94653 2.67308 8.00001C2.67308 9.05349 2.10072 9.97328 1.25 10.4654V13.3365C1.25 13.926 1.72785 14.4039 2.31731 14.4039H18.6827C19.2721 14.4039 19.75 13.926 19.75 13.3365V10.4654C18.8993 9.97328 18.3269 9.05349 18.3269 8.00001C18.3269 6.94653 18.8993 6.02673 19.75 5.53462V2.66347C19.75 2.07401 19.2722 1.59616 18.6827 1.59616H2.31731Z" stroke="#A1A1AA" stroke-width="1.42308" stroke-linecap="round" stroke-linejoin="round"/>
</svg>
