<svg width="18" height="16" viewBox="0 0 18 16" fill="none" xmlns="http://www.w3.org/2000/svg">
<path fill-rule="evenodd" clip-rule="evenodd" d="M3.78458 1.30959C3.69312 1.30904 3.61102 1.36558 3.5789 1.45122L1.32487 7.46198C1.27136 7.60467 1.37684 7.75688 1.52924 7.75688H3.17961H5.60224L6.31853 4.89174C6.38742 4.61619 6.66664 4.44866 6.94219 4.51755C7.21774 4.58643 7.38528 4.86566 7.31639 5.14121L6.66247 7.75688H6.67288H6.6858H6.69871H6.71161H6.72449H6.73736H6.75021H6.76305H6.77588H6.78869H6.80149H6.81427H6.82704H6.8398H6.85255H6.86528H6.878H6.8907H6.90339H6.91607H6.92874H6.94139H6.95403H6.96665H6.97926H6.99186H7.00445H7.01702H7.02958H7.04213H7.05467H7.06719H7.0797H7.0922H7.10468H7.11715H7.12961H7.14206H7.15449H7.16692H7.17933H7.19172H7.20411H7.21648H7.22884H7.24119H7.25353H7.26585H7.27816H7.29046H7.30275H7.31503H7.32729H7.33955H7.35179H7.36402H7.37623H7.38844H7.40063H7.41282H7.42499H7.43715H7.4493H7.46143H7.47356H7.48567H7.49778H7.50987H7.52195H7.53402H7.54608H7.55812H7.57016H7.58219H7.5942H7.6062H7.6182H7.63018H7.64215H7.65411H7.66606H7.678H7.68993H7.70185H7.71375H7.72565H7.73754H7.74941H7.76128H7.77314H7.78498H7.79682H7.80864H7.82046H7.83226H7.84406H7.85584H7.86761H7.87938H7.89113H7.90288H7.91461H7.92634H7.93806H7.94976H7.96146H7.97315H7.98482H7.99649H8.00815H8.0198H8.03144H8.04307H8.05469H8.0663H8.0779H8.0895H8.10108H8.11266H8.12422H8.13578H8.14733H8.15887H8.1704H8.18192H8.19343H8.20494H8.21643H8.22792H8.2394H8.25087H8.26233H8.27378H8.28523H8.29666H8.30809H8.31951H8.33092H8.34232H8.35372H8.3651H8.37648H8.38785H8.39921H8.41057H8.42191H8.43325H8.44458H8.4559H8.46722H8.47853H8.48983H8.50112H8.5124H8.52368H8.53495H8.54621H8.55746H8.56871H8.57995H8.59118H8.60241H8.61362H8.62483H8.63604H8.64723H8.65842H8.66961H8.68078H8.69195H8.70311H8.71427H8.72541H8.73655H8.74769H8.75882H8.76994H8.78105H8.79216H8.80326H8.81436H8.82544H8.83653H8.8476H8.85867H8.86973H8.88079H8.89184H8.90289H8.91393H8.92496H8.93599H8.94701H8.95802H8.96903H8.98003H8.99103H9.00202H9.01301H9.02399H9.03496H9.04593H9.05689H9.06785H9.0788H9.08975H9.10069H9.11163H9.12256H9.13349H9.14441H9.15532H9.16623H9.17714H9.18804H9.19893H9.20982H9.22071H9.23159H9.24246H9.25334H9.2642H9.27506H9.28592H9.29677H9.30762H9.31846H9.3293H9.34014H9.35097H9.36179H9.37261H9.38343H9.39424H9.40505H9.41585H9.42665H9.43745H9.44824H9.45903H9.46982H9.4806H9.49137H9.50214H9.51291H9.52368H9.53444H9.5452H9.55595H9.5667H9.57745H9.58819H9.59893H9.60967H9.6204H9.63113H9.64186H9.65258H9.66331H9.67402H9.68474H9.69545H9.70616H9.71686H9.72756H9.73826H9.74896H9.75965H9.77035H9.78103H9.79172H9.8024H9.81308H9.82376H9.83444H9.84511H9.85578H9.86645H9.87711H9.88778H9.89844H9.9091H9.91976H9.93041H9.94106H9.95171H9.96236H9.97301H9.98365H9.9943H10.0049H10.0156H10.0262H10.0369H10.0475H10.0581H10.0687H10.0794H10.09H10.1006H10.1113H10.1219H10.1325H10.1431H10.1537H10.1644H10.175H10.1856H10.1962H10.2068H10.2174H10.2281H10.2387H10.2493H10.2599H10.2705H10.2811H10.2917H10.3023H10.3129H10.3235H10.3341H10.3447H10.3553H10.3659H10.3766H10.3872H10.3978H10.4084H10.419H10.4296H10.4402H10.4508H10.4614H10.472H10.4826H10.4932H10.5038H10.5144H10.525H10.5356H10.5462H10.5568H10.5674H10.578H10.5886H10.5992H10.6098H10.6204H10.631H10.6417H10.6523H10.6629H10.6735H10.6841H10.6947H10.7053H10.7159H10.7266H10.7372H10.7478H10.7584H10.769H10.7796H10.7903H10.8009H10.8115H10.8221H10.8328H10.8434H10.854H10.8647H10.8753H10.8859H10.8966H10.9072H10.9179H10.9285H10.9391H10.9498H10.9604H10.9711H10.9817H10.9924H11.0031H11.0137H11.0244H11.035H11.0457H11.0564H11.0671H11.0777H11.0884H11.0991H11.1098H11.1204H11.1311H11.1418H11.1525H11.1632H11.1739H11.1846H11.1953H11.206H11.2167H11.2274H11.2381H11.2489H11.2596H11.2703H11.281H11.2918H11.3025H11.3132H11.324H11.3347H11.3455H11.3562H11.367H11.3777H11.3885H11.3993H11.41H11.4208H11.4316H11.4424H11.4532H11.4639H11.4747H11.4855H11.4963H11.5071H11.5142L10.6926 5.17228C10.6065 4.90159 10.7562 4.61241 11.0269 4.52636C11.2976 4.44031 11.5868 4.58999 11.6728 4.86067L12.5935 7.75688H12.5944H12.5998H12.6052H12.6106H12.6159H12.6213H12.6267H12.6321H12.6375H12.6428H12.6482H12.6536H12.659H12.6644H12.6698H12.6752H12.6806H12.686H12.6914H12.6968H12.7022H12.7076H12.713H12.7185H12.7239H12.7293H12.7347H12.7401H12.7455H12.751H12.7564H12.7618H12.7673H12.7727H12.7781H12.7836H12.789H12.7944H12.7999H12.8053H12.8108H12.8162H12.8217H12.8271H12.8326H12.838H12.8435H12.8489H12.8544H12.8599H12.8653H12.8708H12.8763H12.8817H12.8872H12.8927H12.8982H12.9037H12.9091H12.9146H12.9201H12.9256H12.9311H12.9366H12.9421H12.9476H12.9531H12.9586H12.9641H12.9696H12.9751H12.9806H12.9861H12.9916H12.9972H13.0027H13.0082H13.0137H13.0192H13.0248H13.0303H13.0358H13.0414H13.0469H13.0524H13.058H13.0635H13.0691H13.0746H13.0802H13.0857H13.0913H13.0968H13.1024H13.108H13.1135H13.1191H13.1246H13.1302H13.1358H13.1414H13.1469H13.1525H13.1581H13.1637H13.1693H13.1749H13.1805H13.186H13.1916H13.1972H13.2028H13.2084H13.214H13.2196H13.2253H13.2309H13.2365H13.2421H13.2477H13.2533H13.259H13.2646H13.2702H13.2758H13.2815H13.2871H13.2927H13.2984H13.304H13.3097H13.3153H13.321H13.3266H13.3323H13.3379H13.3436H13.3493H13.3549H13.3606H13.3663H13.3719H13.3776H13.3833H13.389H13.3946H13.4003H13.406H13.4117H13.4174H13.4231H13.4288H13.4345H13.4402H13.4459H13.4516H13.4573H13.463H13.4687H13.4744H13.4801H13.4859H13.4916H13.4973H13.503H13.5088H13.5145H13.5202H13.526H13.5317H13.5375H13.5432H13.549H13.5547H13.5605H13.5662H13.572H13.5778H13.5835H13.5893H13.5951H13.6008H13.6066H13.6124H13.6182H13.6239H13.6297H13.6355H13.6413H13.6471H13.6529H13.6587H13.6645H13.6703H13.6761H13.6819H13.6877H13.6935H13.6994H13.7052H13.711H13.7168H13.7227H13.7285H13.7343H13.7402H13.746H13.7518H13.7577H13.7635H13.7694H13.7752H13.7811H13.787H13.7928H13.7987H13.8046H13.8104H13.8163H13.8222H13.8281H13.8339H13.8398H13.8457H13.8516H13.8575H13.8634H13.8693H13.8752H13.8811H13.887H13.8929H13.8988H13.9047H13.9106H13.9166H13.9225H13.9284H13.9343H13.9403H13.9462H13.9522H13.9581H13.964H13.97H13.9759H13.9819H13.9878H13.9938H13.9998H14.0057H14.0117H14.0177H14.0236H14.0296H14.0356H14.0416H14.0476H14.0535H14.0595H14.0655H14.0715H14.0775H14.0835H14.0895H14.0955H14.1016H14.1076H14.1136H14.1196H14.1256H14.1317H14.1377H14.1437H14.1498H14.1558H14.1618H14.1679H14.1739H14.18H14.186H14.1921H14.1981H14.2042H14.2103H14.2163H14.2224H14.2285H14.2346H14.2407H14.2467H14.2528H14.2589H14.265H14.2711H14.2772H14.2833H14.2894H14.2955H14.3016H14.3078H14.3139H14.32H14.3261H14.3323H14.3384H14.3445H14.3507H14.3568H14.3629H14.3691H14.3752H14.3814H14.3876H14.3937H14.3999H14.406H14.4122H14.4184H14.4246H14.4307H14.4369H14.4431H14.4493H14.4555H14.4617H14.4679H14.4741H14.4803H14.4865H14.4927H14.4989H14.5052H14.5114H14.5176H14.5238H14.5301H14.5363H14.5425H14.5488H14.555H14.5613H14.5675H14.5738H14.58H14.5863H14.5926H14.5988H14.6051H14.6114H14.6177H14.624H14.6302H14.6365H14.6428H14.6491H14.6554H14.6617H14.668H14.6743H14.6806H14.687H14.6933H14.6996H14.7059H14.7123H14.7186H14.7249H14.7313H14.7376H14.744H14.7503H14.7567H14.763H14.7694H14.7757H14.7821H14.7885H14.7949H14.8012H14.8076H14.814H14.8204H16.4708C16.6232 7.75688 16.7286 7.60467 16.6751 7.46198L14.4211 1.45122C14.389 1.36558 14.3069 1.30904 14.2154 1.30959L9.00402 1.3409L8.99616 1.34094V1.3409L3.78458 1.30959ZM2.3527 0.991388C2.5775 0.391916 3.15222 -0.00381768 3.79245 2.77776e-05L9.00009 0.0313069L14.2076 2.78969e-05C14.8478 -0.00381768 15.4225 0.391916 15.6473 0.991389L17.9013 7.00215C18.2759 8.00099 17.5375 9.06647 16.4708 9.06647H15.4752V13.9653C15.4752 14.8091 14.7911 15.4932 13.9473 15.4932H4.05267C3.20886 15.4932 2.52481 14.8091 2.52481 13.9653V9.06647H1.52924C0.46248 9.06647 -0.275901 8.00099 0.098662 7.00215L2.3527 0.991388ZM3.8344 9.06647V13.9653C3.8344 14.0858 3.93212 14.1836 4.05267 14.1836H13.9473C14.0679 14.1836 14.1656 14.0858 14.1656 13.9653V9.06647H14.1618H14.1558H14.1498H14.1437H14.1377H14.1317H14.1256H14.1196H14.1136H14.1076H14.1016H14.0955H14.0895H14.0835H14.0775H14.0715H14.0655H14.0595H14.0535H14.0476H14.0416H14.0356H14.0296H14.0236H14.0177H14.0117H14.0057H13.9998H13.9938H13.9878H13.9819H13.9759H13.97H13.964H13.9581H13.9522H13.9462H13.9403H13.9343H13.9284H13.9225H13.9166H13.9106H13.9047H13.8988H13.8929H13.887H13.8811H13.8752H13.8693H13.8634H13.8575H13.8516H13.8457H13.8398H13.8339H13.8281H13.8222H13.8163H13.8104H13.8046H13.7987H13.7928H13.787H13.7811H13.7752H13.7694H13.7635H13.7577H13.7518H13.746H13.7402H13.7343H13.7285H13.7227H13.7168H13.711H13.7052H13.6994H13.6935H13.6877H13.6819H13.6761H13.6703H13.6645H13.6587H13.6529H13.6471H13.6413H13.6355H13.6297H13.6239H13.6182H13.6124H13.6066H13.6008H13.5951H13.5893H13.5835H13.5778H13.572H13.5662H13.5605H13.5547H13.549H13.5432H13.5375H13.5317H13.526H13.5202H13.5145H13.5088H13.503H13.4973H13.4916H13.4859H13.4801H13.4744H13.4687H13.463H13.4573H13.4516H13.4459H13.4402H13.4345H13.4288H13.4231H13.4174H13.4117H13.406H13.4003H13.3946H13.389H13.3833H13.3776H13.3719H13.3663H13.3606H13.3549H13.3493H13.3436H13.3379H13.3323H13.3266H13.321H13.3153H13.3097H13.304H13.2984H13.2927H13.2871H13.2815H13.2758H13.2702H13.2646H13.259H13.2533H13.2477H13.2421H13.2365H13.2309H13.2253H13.2196H13.214H13.2084H13.2028H13.1972H13.1916H13.186H13.1805H13.1749H13.1693H13.1637H13.1581H13.1525H13.1469H13.1414H13.1358H13.1302H13.1246H13.1191H13.1135H13.108H13.1024H13.0968H13.0913H13.0857H13.0802H13.0746H13.0691H13.0635H13.058H13.0524H13.0469H13.0414H13.0358H13.0303H13.0248H13.0192H13.0137H13.0082H13.0027H12.9972H12.9916H12.9861H12.9806H12.9751H12.9696H12.9641H12.9586H12.9531H12.9476H12.9421H12.9366H12.9311H12.9256H12.9201H12.9146H12.9091H12.9037H12.8982H12.8927H12.8872H12.8817H12.8763H12.8708H12.8653H12.8599H12.8544H12.8489H12.8435H12.838H12.8326H12.8271H12.8217H12.8162H12.8108H12.8053H12.7999H12.7944H12.789H12.7836H12.7781H12.7727H12.7673H12.7618H12.7564H12.751H12.7455H12.7401H12.7347H12.7293H12.7239H12.7185H12.713H12.7076H12.7022H12.6968H12.6914H12.686H12.6806H12.6752H12.6698H12.6644H12.659H12.6536H12.6482H12.6428H12.6375H12.6321H12.6267H12.6213H12.6159H12.6106H12.6052H12.5998H12.5944H12.5891H12.5837H12.5783H12.573H12.5676H12.5623H12.5569H12.5515H12.5462H12.5408H12.5355H12.5301H12.5248H12.5194H12.5141H12.5087H12.5034H12.4981H12.4927H12.4874H12.4821H12.4767H12.4714H12.4661H12.4607H12.4554H12.4501H12.4448H12.4395H12.4341H12.4288H12.4235H12.4182H12.4129H12.4076H12.4023H12.397H12.3917H12.3864H12.3811H12.3758H12.3705H12.3652H12.3599H12.3546H12.3493H12.344H12.3387H12.3334H12.3281H12.3228H12.3176H12.3123H12.307H12.3017H12.2965H12.2912H12.2859H12.2806H12.2754H12.2701H12.2648H12.2596H12.2543H12.249H12.2438H12.2385H12.2333H12.228H12.2228H12.2175H12.2123H12.207H12.2018H12.1965H12.1913H12.186H12.1808H12.1756H12.1703H12.1651H12.1598H12.1546H12.1494H12.1441H12.1389H12.1337H12.1285H12.1232H12.118H12.1128H12.1076H12.1024H12.0971H12.0919H12.0867H12.0815H12.0763H12.0711H12.0659H12.0606H12.0554H12.0502H12.045H12.0398H12.0346H12.0294H12.0242H12.019H12.0138H12.0086H12.0034H11.9983H11.9931H11.9879H11.9827H11.9775H11.9723H11.9671H11.962H11.9568H11.9516H11.9464H11.9412H11.9361H11.9309H11.9257H11.9205H11.9154H11.9102H11.8992H11.8882H11.8773H11.8663H11.8553H11.8444H11.8334H11.8225H11.8115H11.8006H11.7896H11.7787H11.7678H11.7569H11.746H11.7351H11.7242H11.7133H11.7024H11.6915H11.6806H11.6697H11.6589H11.648H11.6371H11.6263H11.6154H11.6046H11.5937H11.5829H11.5721H11.5612H11.5504H11.5396H11.5288H11.5179H11.5071H11.4963H11.4855H11.4747H11.4639H11.4532H11.4424H11.4316H11.4208H11.41H11.3993H11.3885H11.3777H11.367H11.3562H11.3455H11.3347H11.324H11.3132H11.3025H11.2918H11.281H11.2703H11.2596H11.2489H11.2381H11.2274H11.2167H11.206H11.1953H11.1846H11.1739H11.1632H11.1525H11.1418H11.1311H11.1204H11.1098H11.0991H11.0884H11.0777H11.0671H11.0564H11.0457H11.035H11.0244H11.0137H11.0031H10.9924H10.9817H10.9711H10.9604H10.9498H10.9391H10.9285H10.9179H10.9072H10.8966H10.8859H10.8753H10.8647H10.854H10.8434H10.8328H10.8221H10.8115H10.8009H10.7903H10.7796H10.769H10.7584H10.7478H10.7372H10.7266H10.7159H10.7053H10.6947H10.6841H10.6735H10.6629H10.6523H10.6417H10.631H10.6204H10.6098H10.5992H10.5886H10.578H10.5674H10.5568H10.5462H10.5356H10.525H10.5144H10.5038H10.4932H10.4826H10.472H10.4614H10.4508H10.4402H10.4296H10.419H10.4084H10.3978H10.3872H10.3766H10.3659H10.3553H10.3447H10.3341H10.3235H10.3129H10.3023H10.2917H10.2811H10.2705H10.2599H10.2493H10.2387H10.2281H10.2174H10.2068H10.1962H10.1856H10.175H10.1644H10.1537H10.1431H10.1325H10.1219H10.1113H10.1006H10.09H10.0794H10.0687H10.0581H10.0475H10.0369H10.0262H10.0156H10.0049H9.9943H9.98365H9.97301H9.96236H9.95171H9.94106H9.93041H9.91976H9.9091H9.89844H9.88778H9.87711H9.86645H9.85578H9.84511H9.83444H9.82376H9.81308H9.8024H9.79172H9.78103H9.77035H9.75965H9.74896H9.73826H9.72756H9.71686H9.70616H9.69545H9.68474H9.67402H9.66331H9.65258H9.64186H9.63113H9.6204H9.60967H9.59893H9.58819H9.57745H9.5667H9.55595H9.5452H9.53444H9.52368H9.51291H9.50214H9.49137H9.4806H9.46982H9.45903H9.44824H9.43745H9.42665H9.41585H9.40505H9.39424H9.38343H9.37261H9.36179H9.35097H9.34014H9.3293H9.31846H9.30762H9.29677H9.28592H9.27506H9.2642H9.25334H9.24246H9.23159H9.22071H9.20982H9.19893H9.18804H9.17714H9.16623H9.15532H9.14441H9.13349H9.12256H9.11163H9.10069H9.08975H9.0788H9.06785H9.05689H9.04593H9.03496H9.02399H9.01301H9.00202H8.99103H8.98003H8.96903H8.95802H8.94701H8.93599H8.92496H8.91393H8.90289H8.89184H8.88079H8.86973H8.85867H8.8476H8.83653H8.82544H8.81436H8.80326H8.79216H8.78105H8.76994H8.75882H8.74769H8.73655H8.72541H8.71427H8.70311H8.69195H8.68078H8.66961H8.65842H8.64723H8.63604H8.62483H8.61362H8.60241H8.59118H8.57995H8.56871H8.55746H8.54621H8.53495H8.52368H8.5124H8.50112H8.48983H8.47853H8.46722H8.4559H8.44458H8.43325H8.42191H8.41057H8.39921H8.38785H8.37648H8.3651H8.35372H8.34232H8.33092H8.31951H8.30809H8.29666H8.28523H8.27378H8.26233H8.25087H8.2394H8.22792H8.21643H8.20494H8.19343H8.18192H8.1704H8.15887H8.14733H8.13578H8.12422H8.11266H8.10108H8.0895H8.0779H8.0663H8.05469H8.04307H8.03144H8.0198H8.00815H7.99649H7.98482H7.97315H7.96146H7.94976H7.93806H7.92634H7.91461H7.90288H7.89113H7.87938H7.86761H7.85584H7.84406H7.83226H7.82046H7.80864H7.79682H7.78498H7.77314H7.76128H7.74941H7.73754H7.72565H7.71375H7.70185H7.68993H7.678H7.66606H7.65411H7.64215H7.63018H7.6182H7.6062H7.5942H7.58219H7.57016H7.55812H7.54608H7.53402H7.52195H7.50987H7.49778H7.48567H7.47356H7.46143H7.4493H7.43715H7.42499H7.41282H7.40063H7.38844H7.37623H7.36402H7.35179H7.33955H7.32729H7.31503H7.30275H7.29046H7.27816H7.26585H7.25353H7.24119H7.22884H7.21648H7.20411H7.19172H7.17933H7.16692H7.15449H7.14206H7.12961H7.11715H7.10468H7.0922H7.0797H7.06719H7.05467H7.04213H7.02958H7.01702H7.00445H6.99186H6.97926H6.96665H6.95403H6.94139H6.92874H6.91607H6.90339H6.8907H6.878H6.86528H6.85255H6.8398H6.82704H6.81427H6.80149H6.78869H6.77588H6.76305H6.75021H6.73736H6.72449H6.71161H6.69871H6.6858H6.67288H6.65994H6.64699H6.63403H6.62105H6.60805H6.59505H6.58202H6.56899H6.55594H6.54287H6.52979H6.5167H6.50359H6.49047H6.47733H6.46418H6.45101H6.43783H6.42463H6.41142H6.3982H6.38496H6.3717H6.35843H6.34514H6.33184H6.31853H6.3052H6.29185H6.27849H6.26511H6.25172H6.23831H6.22489H6.21145H6.198H6.18453H6.17104H6.15754H6.14403H6.13049H6.11695H6.10338H6.0898H3.8344Z" fill="#D4D4D8"/>
</svg>
